<svg width="40" height="40" viewBox="0 0 40 40" fill="none" xmlns="http://www.w3.org/2000/svg">
<g clip-path="url(#clip0_109_33)">
<path d="M40 0H0V40H40V0Z" fill="white"/>
<path fill-rule="evenodd" clip-rule="evenodd" d="M3.33325 20C3.33325 10.7952 10.7952 3.33331 19.9999 3.33331C29.2046 3.33331 36.6666 10.7952 36.6666 20C36.6666 29.2046 29.2046 36.6666 19.9999 36.6666C10.7952 36.6666 3.33325 29.2046 3.33325 20ZM26.1784 15.4881C26.8293 16.139 26.8293 17.1943 26.1784 17.8451L20.0404 23.9831C19.0976 24.926 17.5689 24.926 16.6261 23.9831L13.8214 21.1785C13.1705 20.5276 13.1705 19.4723 13.8214 18.8215C14.4723 18.1706 15.5276 18.1706 16.1784 18.8215L18.3333 20.9763L23.8214 15.4881C24.4723 14.8373 25.5276 14.8373 26.1784 15.4881Z" fill="#323232"/>
</g>
<defs>
<clipPath id="clip0_109_33">
<rect width="40" height="40" rx="20" fill="white"/>
</clipPath>
</defs>
</svg>
