<svg width="48" height="48" viewBox="0 0 48 48" fill="none" xmlns="http://www.w3.org/2000/svg">
<path d="M9.5999 11.5125H20.2874V24.3H9.5999V11.5125ZM24.5249 11.5125H33.0749V13.65H24.5249V11.5125ZM24.5249 22.2H33.0749V24.3375H24.5249V22.2ZM24.5249 16.8375H33.0749V18.975H24.5249V16.8375ZM9.5999 27.6H33.0374V29.7375H9.5999V27.6ZM9.5999 38.025H33.0374V40.1625H9.5999V38.025ZM9.5999 32.6625H33.0374V34.8H9.5999V32.6625ZM8.9999 0.599976V4.68748H4.2749V47.5125H38.9999V43.425H43.7249V0.599976H8.9999ZM36.8624 45.4125H6.3749V6.78748H8.9999H11.1374H36.8624V41.25V43.3875V45.4125ZM41.6249 41.2875H38.9999V4.64998H11.1374V2.73748H41.6249V41.2875Z" fill="white"/>
</svg>
