<svg width="48" height="48" viewBox="0 0 48 48" fill="none" xmlns="http://www.w3.org/2000/svg">
<g clip-path="url(#clip0_88_81)">
<path d="M41.0887 22.8587C41.8374 24.183 43.3629 24.9582 44.9466 24.679C46.9555 24.3247 48.2974 22.4087 47.9432 20.3999C47.5889 18.3908 45.6727 17.0491 43.6638 17.4033C42.08 17.6826 40.9114 18.9324 40.6611 20.4335L30.491 22.2267C30.2744 21.4322 29.9162 20.6965 29.4448 20.0481L35.9576 12.2863C37.3823 12.82 39.0491 12.433 40.083 11.2011C41.3941 9.63822 41.1906 7.30831 39.6278 5.99682C38.065 4.68571 35.7347 4.88962 34.4236 6.45229C33.3898 7.68411 33.298 9.39257 34.0711 10.7032L27.654 18.3507C26.9302 17.8814 26.111 17.5479 25.2311 17.3852V7.48574C26.6656 6.97831 27.6938 5.6108 27.6938 4.00269C27.6938 1.96263 26.0399 0.308472 23.9998 0.308472C21.9597 0.308472 20.3058 1.96263 20.3058 4.00269C20.3058 5.61093 21.334 6.97831 22.7685 7.48574V17.3851C21.8887 17.5478 21.0695 17.8813 20.3456 18.3506L13.9287 10.7031C14.7016 9.39232 14.6101 7.68386 13.5764 6.45217C12.265 4.88925 9.93487 4.68522 8.37208 5.9967C6.80928 7.30818 6.6055 9.63822 7.91686 11.201C8.95068 12.4331 10.6173 12.8197 12.0422 12.2862L18.555 20.048C18.0834 20.6965 17.7252 21.4321 17.5086 22.2265L7.33863 20.4335C7.08817 18.9326 5.91989 17.6825 4.33616 17.4033C2.32701 17.0491 0.410947 18.3906 0.0566945 20.3996C-0.297434 22.4087 1.04422 24.3247 3.05325 24.679C4.63698 24.9584 6.16234 24.1834 6.91111 22.8587L17.3061 24.6917C17.3802 25.4173 17.5711 26.1078 17.8571 26.7465L8.54471 32.1228C7.38813 31.1342 5.68964 30.9273 4.29688 31.7315C2.53006 32.7517 1.92461 35.0109 2.94464 36.7775C3.9648 38.5444 6.22415 39.1498 7.99086 38.1294C9.38361 37.3255 10.0539 35.7513 9.77603 34.2552L19.2628 28.7782C19.7078 29.2195 20.214 29.5986 20.7676 29.9027L16.9824 40.3021C15.4609 40.2882 14.0269 41.2218 13.4769 42.7329C12.7792 44.6498 13.7677 46.7698 15.6845 47.4675C17.6017 48.1654 19.7216 47.1768 20.4192 45.2597C20.9694 43.7485 20.471 42.1117 19.2965 41.1442L23.1093 30.6686C23.401 30.7071 23.6979 30.729 24.0001 30.729C24.3022 30.729 24.5992 30.7071 24.8908 30.6686L28.7036 41.1442C27.529 42.1115 27.0307 43.7483 27.5806 45.2597C28.2784 47.1765 30.3983 48.1654 32.3152 47.4677C34.2322 46.7698 35.2209 44.6498 34.5231 42.7329C33.9732 41.2218 32.5393 40.2882 31.0177 40.3024L27.2325 29.9027C27.7861 29.5986 28.2923 29.2195 28.7374 28.7782L38.2239 34.2555C37.946 35.7512 38.6165 37.3258 40.0091 38.1298C41.7761 39.1498 44.0353 38.5444 45.0552 36.778C46.0754 35.0111 45.4698 32.7519 43.7031 31.732C42.3103 30.9278 40.612 31.1343 39.4553 32.1231L30.143 26.7466C30.4289 26.1078 30.6199 25.4173 30.694 24.6918L41.0887 22.8587Z" fill="white"/>
</g>
<defs>
<clipPath id="clip0_88_81">
<rect width="48" height="48" fill="white"/>
</clipPath>
</defs>
</svg>
