<svg width="48" height="48" viewBox="0 0 48 48" fill="none" xmlns="http://www.w3.org/2000/svg">
<g clip-path="url(#clip0_93_33)">
<path d="M39 22.96C41.9324 22.96 44.3164 25.3426 44.3164 28.2754C44.3163 29.6347 43.7927 30.9127 42.9033 31.877C45.7093 33.3077 47.5395 36.2036 47.5381 39.4756V47H45.457V39.4756C45.457 36.4668 43.4181 33.8849 40.4941 33.1914L40.4932 33.1904C40.0594 33.0863 39.7422 32.7191 39.6992 32.2773C39.6558 31.833 39.9041 31.4087 40.3125 31.2285L40.5264 31.124C41.5711 30.5648 42.2332 29.4708 42.2334 28.2754C42.2334 26.492 40.7814 25.04 38.998 25.04C37.2149 25.0403 35.7637 26.4922 35.7637 28.2754C35.7638 29.5505 36.5171 30.7102 37.6846 31.2285H37.6836C38.0924 31.4085 38.3412 31.8328 38.2979 32.2773L38.2969 32.2764C38.2554 32.7221 37.9345 33.0871 37.5039 33.1904L37.5029 33.1914C34.5802 33.8849 32.54 36.4669 32.54 39.4756V47H30.458V39.4766C30.4582 36.2034 32.2901 33.3086 35.0957 31.877C34.2065 30.9127 33.6837 29.6345 33.6836 28.2754C33.6836 25.3425 36.0676 22.96 39 22.96ZM9.35352 24.3828L14.2363 29.2637L14.5889 29.6172L14.2363 29.9707L13.4727 30.7354L13.1191 31.0898L10.04 28.0107V34.5C10.0401 37.2341 12.2653 39.4597 15.001 39.46H29.001V41.54H15.001C11.1191 41.5398 7.96193 38.382 7.96191 34.5V28.0107L5.23633 30.7363L4.88184 31.0898L4.52832 30.7354L3.76465 29.9707L3.41211 29.6172L9 24.0293L9.35352 24.3828ZM9 0.459961C11.9311 0.459982 14.3154 2.84426 14.3154 5.77539C14.3153 7.13608 13.7908 8.41299 12.9014 9.37695C15.7076 10.8084 17.5399 13.703 17.54 16.9766V24.5H15.46V16.9756C15.46 13.9671 13.418 11.3849 10.4951 10.6914V10.6904C10.061 10.5881 9.74082 10.2189 9.7002 9.77637V9.77539C9.66014 9.33307 9.90461 8.91175 10.3125 8.72949H10.3135C11.482 8.20954 12.2363 7.04833 12.2363 5.77344C12.2363 3.99009 10.7843 2.53809 9.00098 2.53809C7.21784 2.53835 5.76465 3.99219 5.76465 5.77539C5.76481 6.97038 6.42813 8.0654 7.47363 8.62598L7.68848 8.73047C8.09572 8.91243 8.34123 9.33437 8.30078 9.77637C8.26007 10.2212 7.93932 10.592 7.50195 10.6934L7.50098 10.6924C4.57994 11.387 2.54022 13.9693 2.54004 16.9766V24.5H0.459961V16.9756C0.459961 13.7025 2.29134 10.8078 5.09668 9.37598C4.20766 8.41328 3.68468 7.13507 3.68457 5.77539C3.68457 2.84425 6.06886 0.459961 9 0.459961ZM33 4.95996C36.8821 4.95998 40.04 8.11787 40.04 12V18.4873L42.7637 15.7637L43.1172 15.4111L43.4707 15.7637L44.2354 16.5273L44.5898 16.8809L39 22.4707L33.4102 16.8809L33.7646 16.5273L34.5293 15.7637L34.8828 15.4111L35.2363 15.7637L37.96 18.4873V12C37.96 9.26566 35.7343 7.04006 33 7.04004H16V4.95996H33Z" fill="white" stroke="white"/>
</g>
<defs>
<clipPath id="clip0_93_33">
<rect width="48" height="48" fill="white"/>
</clipPath>
</defs>
</svg>
