<svg width="48" height="50" viewBox="0 0 48 50" fill="none" xmlns="http://www.w3.org/2000/svg">
<path d="M24 6.36424C29.3 7.90397 35.1 9.75165 38 10.7781V26.894C38 30.3841 34.3 36.543 24 42.702C13.7 36.4404 10 30.3841 10 26.894V10.7781C12.9 9.649 18.7 7.90397 24 6.36424ZM24 2.05298C24 2.05298 6 7.28808 6 8.21192V26.894C6 36.3377 19.3 44.6523 23 46.9106C23.296 47.1136 23.644 47.222 24 47.222C24.356 47.222 24.704 47.1136 25 46.9106C28.8 44.755 42 36.3377 42 26.894V8.21192C42 7.28808 24 2.05298 24 2.05298Z" fill="white"/>
<path d="M19.5999 30.1788L14.5999 25.149C14.2534 24.7855 14.0433 24.3079 14.0067 23.8008C13.9701 23.2936 14.1094 22.7895 14.3999 22.3775C14.5618 22.1301 14.7767 21.9241 15.0282 21.7752C15.2797 21.6264 15.5611 21.5387 15.8508 21.5189C16.1405 21.499 16.4307 21.5476 16.6993 21.6609C16.9678 21.7741 17.2075 21.9491 17.3999 22.1722L20.9999 25.8676L30.5999 16.0133C30.9851 15.7168 31.4615 15.5728 31.9417 15.6078C32.4219 15.6429 32.8737 15.8545 33.2141 16.204C33.5545 16.5534 33.7607 17.0172 33.7949 17.5101C33.829 18.0031 33.6888 18.4921 33.3999 18.8874L22.3999 30.1788C22.2219 30.3779 22.0056 30.5369 21.7646 30.6457C21.5236 30.7544 21.2632 30.8106 20.9999 30.8106C20.7366 30.8106 20.4763 30.7544 20.2352 30.6457C19.9942 30.5369 19.7779 30.3779 19.5999 30.1788Z" fill="white"/>
</svg>
