<svg width="60" height="60" viewBox="0 0 60 60" fill="none" xmlns="http://www.w3.org/2000/svg">
<path d="M29.8359 23.0625C33.3984 23.0625 36.2578 20.2031 36.2578 16.6406C36.2578 13.0781 33.3984 10.1953 29.8359 10.1953C26.2734 10.1953 23.4141 13.0547 23.4141 16.6172C23.4141 20.2031 26.2969 23.0625 29.8359 23.0625ZM14.9062 41.6719H3.35156C-0.398443 41.6719 -0.609381 35.9531 3.42187 35.9531H13.4297L19.1719 27.4922C20.8594 25.1953 22.8047 24.0938 25.5234 24.0938H34.0781C36.8203 24.0938 38.7422 25.1016 40.4297 27.5156L46.1953 35.9766H56.2734C60.3047 35.9766 60.0703 41.6953 56.4141 41.6953H44.8594C43.9453 41.6953 42.8437 41.3672 42.1875 40.3828L37.7812 34.1016L37.7578 49.8516H21.9844L21.9609 34.1016L17.5547 40.3828C16.9219 41.3438 15.8203 41.6719 14.9062 41.6719Z" fill="white"/>
<path d="M52.3828 19.3359C48.5625 19.3359 45.4688 22.4297 45.4688 26.25C45.4688 30.0703 48.5625 33.1641 52.3828 33.1641C56.2031 33.1641 59.2969 30.0703 59.2969 26.25C59.2969 22.4297 56.1797 19.3359 52.3828 19.3359ZM52.3828 31.8047C49.3125 31.8047 46.8281 29.3203 46.8281 26.25C46.8281 23.1797 49.3125 20.6953 52.3828 20.6953C55.4531 20.6953 57.9375 23.1797 57.9375 26.25C57.8906 29.2969 55.4062 31.8047 52.3828 31.8047ZM55.8281 24.8906C55.7109 24.6797 55.4297 24.5391 55.125 24.6797L52.6641 25.7812V22.8984C52.6641 22.7344 52.6172 22.5938 52.5 22.5C52.4062 22.4062 52.2891 22.3828 52.1484 22.3828C51.8906 22.3828 51.6094 22.5937 51.6094 22.9219V26.7188C51.6094 26.9297 51.7266 27.1172 51.9141 27.2109C52.0078 27.2578 52.1016 27.2813 52.1719 27.2813C52.2656 27.2813 52.3594 27.2578 52.4297 27.2109L55.5937 25.6875C55.7344 25.6172 55.8281 25.5 55.875 25.3594C55.9219 25.1953 55.8984 25.0312 55.8281 24.8906Z" fill="white"/>
<path d="M13.3594 29.8359C13.0078 29.5078 12.5859 29.3672 12.0938 29.3672C11.9297 29.3672 11.7656 29.4141 11.6016 29.4609L9.14062 27.2109L10.7344 25.3359L13.2656 27.5625L15.4688 25.0313L9.14062 19.4766L6.91406 22.0078L9.375 24.1641L7.73438 25.9453L5.48437 23.8828C5.53125 23.7188 5.53125 23.5547 5.53125 23.3906C5.50781 22.8984 5.32031 22.4766 4.96875 22.1484C4.61719 21.8203 4.19531 21.6797 3.70312 21.6797C3.53906 21.6797 3.35156 21.7266 3.21094 21.7734L4.64062 23.0625L3.375 24.4453L1.94531 23.1563C1.89844 23.3203 1.89844 23.5078 1.89844 23.6484C1.92188 24.1406 2.10937 24.5391 2.46094 24.8672C2.8125 25.1953 3.23437 25.3359 3.72656 25.3359C3.89062 25.3359 4.07812 25.2891 4.26562 25.2188L6.44531 27.2109L2.83594 30.9609C2.57812 31.1719 2.46094 31.4766 2.46094 31.8047C2.46094 32.4141 2.95312 32.9063 3.5625 32.9063C3.9375 32.9063 4.26562 32.7188 4.47656 32.4375L7.94531 28.5938L10.0078 30.4688L10.3594 30.7969C10.3125 30.9609 10.3125 31.1484 10.3125 31.3359C10.3359 31.8281 10.5234 32.2266 10.875 32.5781C11.2266 32.9062 11.6484 33.0469 12.1406 33.0469C12.3047 33.0469 12.4688 33 12.6328 32.9531L11.2031 31.6641L12.4688 30.2812L13.875 31.5938C13.9219 31.4297 13.9219 31.2422 13.9219 31.1016C13.9219 30.5625 13.7344 30.1641 13.3594 29.8359Z" fill="white"/>
</svg>
