<svg width="134" height="44" viewBox="0 0 134 44" fill="none" xmlns="http://www.w3.org/2000/svg">
<path d="M7.60565 0.0393524C5.23047 0.103897 4.88194 0.14262 4.24942 0.4137C2.50676 1.13658 1.08682 2.60816 0.389755 4.41536L0.0541314 5.26733L0.0154056 21.3902C-0.0233201 39.0233 -0.0491373 38.1584 0.725378 39.772C0.931915 40.1721 1.46117 40.895 1.91297 41.3856C2.57131 42.0697 2.98438 42.3795 3.84926 42.8055L4.95939 43.3477H20.966H36.9727L38.0054 42.8442C39.9933 41.8761 41.4778 39.9269 41.8134 37.8615C41.8909 37.3193 41.9425 31.575 41.9425 21.6612C41.9425 4.82844 41.9554 5.30606 41.168 3.7183C40.4064 2.16927 38.9864 0.930046 37.3083 0.349159L36.4434 0.0522614L23.3541 0.0135345C16.1511 -0.0122833 9.06432 0.00062561 7.60565 0.0393524ZM22.1794 4.37664C22.8894 4.73808 23.4832 5.40932 23.7543 6.17093L23.9092 6.59691L25.2388 6.64855C27.1363 6.70018 27.0976 6.66146 27.0976 9.11409C27.0976 10.7406 27.0589 11.0891 26.8782 11.2956C26.6845 11.5151 26.3231 11.528 20.8111 11.528C15.1314 11.528 14.9506 11.5151 14.7054 11.2698C14.473 11.0375 14.4472 10.8438 14.4472 9.15281C14.4472 6.68727 14.4343 6.70018 16.2931 6.64855L17.6356 6.59691L17.7776 6.1193C17.9712 5.47387 18.707 4.64772 19.3783 4.3121C20.1915 3.91193 21.3017 3.93774 22.1794 4.37664ZM13.4145 9.42389V10.6889H12.2269H11.0264L10.9877 23.3781L10.9619 36.0543L20.7982 36.0285L30.6475 35.9898V23.3393V10.6889L29.4212 10.6502L28.1948 10.6115L28.2336 9.39808L28.2723 8.17176H29.8859C31.7834 8.17176 32.2998 8.35248 32.8678 9.23027L33.2292 9.77243L33.2679 23.0683C33.2937 32.4141 33.2679 36.519 33.1646 36.8675C33.0872 37.1257 32.8548 37.5517 32.6354 37.797C31.8609 38.6747 32.3385 38.6489 20.5659 38.6102L9.98083 38.5715L9.43867 38.21C9.14178 38.0164 8.78033 37.6292 8.63834 37.3452C8.38017 36.8417 8.38017 36.6223 8.38017 23.3393C8.38017 8.63647 8.34144 9.51426 9.11596 8.80428C9.73557 8.2234 9.91629 8.18467 11.7106 8.17176H13.4145V9.42389ZM19.275 14.8326C19.3912 14.9359 19.4816 15.1295 19.4816 15.2457C19.4816 15.5038 16.4997 19.2086 16.1382 19.4022C15.9962 19.4668 15.8413 19.5313 15.7768 19.5313C15.7252 19.5313 15.2217 19.0537 14.6796 18.4728C13.6598 17.4014 13.4662 16.9496 13.8276 16.5882C14.1632 16.2525 14.6279 16.4203 15.1959 17.0916C15.5057 17.4401 15.8155 17.7241 15.8671 17.6983C15.9188 17.6725 16.5255 16.9754 17.2226 16.1364C18.5134 14.5615 18.8232 14.3679 19.275 14.8326ZM28.027 16.7818C28.3627 17.0787 28.311 17.5305 27.9238 17.8403C27.6011 18.0985 27.4203 18.1114 24.5288 18.1114C21.1468 18.1114 20.9015 18.0597 20.9015 17.3369C20.9015 16.5753 20.9919 16.5623 24.5417 16.5623C27.3816 16.5623 27.8205 16.5882 28.027 16.7818ZM19.2363 21.4805C19.3783 21.6225 19.4816 21.8549 19.4557 21.9839C19.4041 22.3196 16.4093 25.9598 16.1124 26.0502C15.751 26.1663 15.4412 25.9469 14.4601 24.8367C13.492 23.7266 13.4145 23.4426 14.0083 23.0683C14.3827 22.8101 14.6408 22.9392 15.2734 23.7137C15.5444 24.0493 15.8026 24.3075 15.8542 24.3075C15.9188 24.3075 16.4351 23.7137 17.0289 22.9779C18.578 21.0674 18.7199 20.9642 19.2363 21.4805ZM28.0012 23.2748C28.1432 23.4168 28.2594 23.6492 28.2594 23.7911C28.2594 23.9331 28.1432 24.1655 28.0012 24.3075C27.756 24.5528 27.5752 24.5657 24.5546 24.5657C21.7793 24.5657 21.3404 24.5398 21.1339 24.3462C20.8499 24.088 20.837 23.5588 21.1209 23.249C21.3146 23.0425 21.5986 23.0166 24.5417 23.0166C27.5752 23.0166 27.756 23.0295 28.0012 23.2748ZM18.2423 28.5157C18.5392 28.7997 18.5521 32.4528 18.2552 32.6981C18.1132 32.8143 17.5065 32.853 16.0866 32.8401C14.4343 32.8272 14.0987 32.7884 13.9696 32.6077C13.8534 32.4528 13.8018 31.8332 13.8018 30.5811C13.8018 28.1801 13.6727 28.3092 16.1382 28.3092C17.7002 28.3092 18.0745 28.3479 18.2423 28.5157ZM27.8979 29.9485C28.1819 30.2067 28.1948 30.736 27.9109 31.0458C27.7172 31.2652 27.4332 31.2781 24.4255 31.2781C21.3275 31.2781 21.1468 31.2652 20.9015 31.02C20.7595 30.878 20.6433 30.6456 20.6433 30.5036C20.6433 30.3616 20.7595 30.1293 20.9015 29.9873C21.1468 29.742 21.3275 29.7291 24.4126 29.7291C27.2525 29.7291 27.6914 29.7549 27.8979 29.9485Z" fill="#0D263B"/>
<path d="M19.7266 6.22268C19.2878 6.67448 19.2103 7.44899 19.5717 8.04279C20.4237 9.48855 22.7085 8.30096 22.0631 6.73902C21.6629 5.78378 20.4366 5.5127 19.7266 6.22268Z" fill="#0D263B"/>
<path d="M15.2217 30.6457V31.5623L16.164 31.5106L17.0934 31.459L17.1322 30.5941L17.1709 29.7292H16.1898H15.2217V30.6457Z" fill="#0D263B"/>
<path d="M54.3239 8.71047C54.2784 8.25214 54.0833 7.89608 53.7386 7.64229C53.3939 7.3885 52.9261 7.26161 52.3352 7.26161C51.9337 7.26161 51.5947 7.31843 51.3182 7.43206C51.0417 7.54191 50.8295 7.69532 50.6818 7.89229C50.5379 8.08926 50.4659 8.31274 50.4659 8.56274C50.4583 8.77108 50.5019 8.9529 50.5966 9.1082C50.6951 9.2635 50.8295 9.39797 51 9.51161C51.1705 9.62146 51.3674 9.71805 51.5909 9.80138C51.8144 9.88093 52.053 9.94911 52.3068 10.0059L53.3523 10.2559C53.8598 10.3696 54.3258 10.5211 54.75 10.7105C55.1742 10.8999 55.5417 11.1328 55.8523 11.4093C56.1629 11.6858 56.4034 12.0116 56.5739 12.3866C56.7481 12.7616 56.8371 13.1915 56.8409 13.6764C56.8371 14.3885 56.6553 15.0059 56.2955 15.5287C55.9394 16.0476 55.4242 16.451 54.75 16.7389C54.0795 17.023 53.2708 17.165 52.3239 17.165C51.3845 17.165 50.5663 17.0211 49.8693 16.7332C49.1761 16.4453 48.6345 16.0192 48.2443 15.4548C47.858 14.8866 47.6553 14.184 47.6364 13.3468H50.017C50.0436 13.737 50.1553 14.0627 50.3523 14.3241C50.553 14.5817 50.8201 14.7768 51.1534 14.9093C51.4905 15.0381 51.8712 15.1025 52.2955 15.1025C52.7121 15.1025 53.0739 15.0419 53.3807 14.9207C53.6913 14.7995 53.9318 14.6309 54.1023 14.415C54.2727 14.1991 54.358 13.951 54.358 13.6707C54.358 13.4093 54.2803 13.1896 54.125 13.0116C53.9735 12.8336 53.75 12.6821 53.4545 12.5571C53.1629 12.4321 52.8049 12.3184 52.3807 12.2162L51.1136 11.898C50.1326 11.6593 49.358 11.2862 48.7898 10.7787C48.2216 10.2711 47.9394 9.58736 47.9432 8.72752C47.9394 8.02297 48.1269 7.40744 48.5057 6.88093C48.8883 6.35441 49.4129 5.94343 50.0795 5.64797C50.7462 5.35252 51.5038 5.20479 52.3523 5.20479C53.2159 5.20479 53.9697 5.35252 54.6136 5.64797C55.2614 5.94343 55.7652 6.35441 56.125 6.88093C56.4848 7.40744 56.6705 8.01729 56.6818 8.71047H54.3239ZM60.956 5.36388V17.0002H58.4957V5.36388H60.956ZM70.696 9.12524C70.6165 8.84873 70.5047 8.60441 70.3608 8.39229C70.2169 8.17638 70.0407 7.99456 69.8324 7.84684C69.6278 7.69532 69.393 7.57979 69.1278 7.50024C68.8665 7.4207 68.5767 7.38093 68.2585 7.38093C67.6638 7.38093 67.1411 7.52865 66.6903 7.82411C66.2434 8.11956 65.8949 8.54949 65.6449 9.11388C65.3949 9.67449 65.2699 10.3601 65.2699 11.1707C65.2699 11.9813 65.393 12.6707 65.6392 13.2389C65.8854 13.8071 66.2339 14.2408 66.6847 14.54C67.1354 14.8355 67.6676 14.9832 68.2812 14.9832C68.8381 14.9832 69.3134 14.8847 69.7074 14.6877C70.1051 14.487 70.4081 14.2048 70.6165 13.8412C70.8286 13.4775 70.9347 13.0476 70.9347 12.5514L71.4347 12.6252H68.4347V10.773H73.304V12.2389C73.304 13.2616 73.0881 14.1404 72.6562 14.8752C72.2244 15.6063 71.6297 16.1707 70.8722 16.5684C70.1146 16.9624 69.2472 17.1593 68.2699 17.1593C67.179 17.1593 66.2206 16.9188 65.3949 16.4377C64.5691 15.9529 63.9252 15.2654 63.4631 14.3752C63.0047 13.4813 62.7756 12.4207 62.7756 11.1934C62.7756 10.2502 62.9119 9.40933 63.1847 8.6707C63.4612 7.92827 63.8475 7.29949 64.3438 6.78434C64.84 6.26918 65.4176 5.87714 66.0767 5.6082C66.7358 5.33926 67.4498 5.20479 68.2188 5.20479C68.8778 5.20479 69.4915 5.30138 70.0597 5.49456C70.6278 5.68396 71.1316 5.9529 71.571 6.30138C72.0142 6.64986 72.3759 7.06464 72.6562 7.5457C72.9366 8.02297 73.1165 8.54949 73.196 9.12524H70.696ZM76.7983 17.0002H74.1619L78.179 5.36388H81.3494L85.3608 17.0002H82.7244L79.8097 8.02297H79.7188L76.7983 17.0002ZM76.6335 12.4264H82.8608V14.3468H76.6335V12.4264Z" fill="#0D263B"/>
<path d="M50.7358 25.7815C50.7093 25.5334 50.5975 25.3402 50.4006 25.2019C50.2055 25.0637 49.9517 24.9946 49.6392 24.9946C49.4195 24.9946 49.2311 25.0277 49.0739 25.094C48.9167 25.1603 48.7964 25.2502 48.7131 25.3639C48.6297 25.4775 48.5871 25.6073 48.5852 25.7531C48.5852 25.8743 48.6127 25.9794 48.6676 26.0684C48.7244 26.1574 48.8011 26.2332 48.8977 26.2957C48.9943 26.3563 49.1013 26.4074 49.2188 26.4491C49.3362 26.4908 49.4545 26.5258 49.5739 26.5542L50.1193 26.6906C50.339 26.7417 50.5502 26.8109 50.7528 26.898C50.9574 26.9851 51.1402 27.0949 51.3011 27.2275C51.464 27.3601 51.5928 27.5201 51.6875 27.7076C51.7822 27.8951 51.8295 28.1148 51.8295 28.3667C51.8295 28.7076 51.7424 29.0078 51.5682 29.2673C51.3939 29.5249 51.142 29.7266 50.8125 29.8724C50.4848 30.0163 50.0881 30.0883 49.6222 30.0883C49.1695 30.0883 48.7765 30.0182 48.4432 29.8781C48.1117 29.7379 47.8523 29.5334 47.6648 29.2644C47.4792 28.9955 47.3788 28.6679 47.3636 28.2815H48.4006C48.4157 28.4841 48.4782 28.6527 48.5881 28.7872C48.6979 28.9216 48.8409 29.022 49.017 29.0883C49.1951 29.1546 49.3939 29.1877 49.6136 29.1877C49.8428 29.1877 50.0436 29.1537 50.2159 29.0855C50.3902 29.0154 50.5265 28.9188 50.625 28.7957C50.7235 28.6707 50.7737 28.5249 50.7756 28.3582C50.7737 28.2067 50.7292 28.0817 50.642 27.9832C50.5549 27.8828 50.4328 27.7995 50.2756 27.7332C50.1203 27.665 49.9384 27.6044 49.7301 27.5514L49.0682 27.3809C48.589 27.2578 48.2102 27.0713 47.9318 26.8213C47.6553 26.5694 47.517 26.2351 47.517 25.8184C47.517 25.4756 47.6098 25.1754 47.7955 24.9179C47.983 24.6603 48.2377 24.4605 48.5597 24.3184C48.8816 24.1745 49.2462 24.1025 49.6534 24.1025C50.0663 24.1025 50.428 24.1745 50.7386 24.3184C51.0511 24.4605 51.2964 24.6584 51.4744 24.9122C51.6525 25.1641 51.7443 25.4538 51.75 25.7815H50.7358ZM53.8232 24.1821V30.0002H52.7692V24.1821H53.8232ZM58.1264 25.7815C58.0999 25.5334 57.9882 25.3402 57.7912 25.2019C57.5961 25.0637 57.3423 24.9946 57.0298 24.9946C56.8101 24.9946 56.6217 25.0277 56.4645 25.094C56.3073 25.1603 56.187 25.2502 56.1037 25.3639C56.0204 25.4775 55.9777 25.6073 55.9759 25.7531C55.9759 25.8743 56.0033 25.9794 56.0582 26.0684C56.1151 26.1574 56.1918 26.2332 56.2884 26.2957C56.3849 26.3563 56.492 26.4074 56.6094 26.4491C56.7268 26.4908 56.8452 26.5258 56.9645 26.5542L57.5099 26.6906C57.7296 26.7417 57.9408 26.8109 58.1435 26.898C58.348 26.9851 58.5308 27.0949 58.6918 27.2275C58.8546 27.3601 58.9834 27.5201 59.0781 27.7076C59.1728 27.8951 59.2202 28.1148 59.2202 28.3667C59.2202 28.7076 59.133 29.0078 58.9588 29.2673C58.7846 29.5249 58.5327 29.7266 58.2031 29.8724C57.8755 30.0163 57.4787 30.0883 57.0128 30.0883C56.5601 30.0883 56.1671 30.0182 55.8338 29.8781C55.5024 29.7379 55.2429 29.5334 55.0554 29.2644C54.8698 28.9955 54.7694 28.6679 54.7543 28.2815H55.7912C55.8063 28.4841 55.8688 28.6527 55.9787 28.7872C56.0885 28.9216 56.2315 29.022 56.4077 29.0883C56.5857 29.1546 56.7846 29.1877 57.0043 29.1877C57.2334 29.1877 57.4342 29.1537 57.6065 29.0855C57.7808 29.0154 57.9171 28.9188 58.0156 28.7957C58.1141 28.6707 58.1643 28.5249 58.1662 28.3582C58.1643 28.2067 58.1198 28.0817 58.0327 27.9832C57.9455 27.8828 57.8234 27.7995 57.6662 27.7332C57.5109 27.665 57.3291 27.6044 57.1207 27.5514L56.4588 27.3809C55.9796 27.2578 55.6009 27.0713 55.3224 26.8213C55.0459 26.5694 54.9077 26.2351 54.9077 25.8184C54.9077 25.4756 55.0005 25.1754 55.1861 24.9179C55.3736 24.6603 55.6283 24.4605 55.9503 24.3184C56.2723 24.1745 56.6368 24.1025 57.044 24.1025C57.4569 24.1025 57.8187 24.1745 58.1293 24.3184C58.4418 24.4605 58.687 24.6584 58.8651 24.9122C59.0431 25.1641 59.1349 25.4538 59.1406 25.7815H58.1264ZM59.9041 25.0656V24.1821H64.5462V25.0656H62.7479V30.0002H61.7024V25.0656H59.9041ZM65.4411 30.0002V24.1821H69.2251V25.0656H66.495V26.6451H69.0291V27.5287H66.495V29.1167H69.2479V30.0002H65.4411ZM70.3004 24.1821H71.5902L73.3175 28.398H73.3857L75.1129 24.1821H76.4027V30.0002H75.3913V26.0031H75.3374L73.7294 29.9832H72.9737L71.3658 25.9946H71.3118V30.0002H70.3004V24.1821ZM78.2976 30.0002H77.1726L79.2209 24.1821H80.522L82.5732 30.0002H81.4482L79.8942 25.3752H79.8487L78.2976 30.0002ZM78.3345 27.719H81.4027V28.5656H78.3345V27.719ZM87.2955 30.0002H85.3239V24.1821H87.3352C87.9129 24.1821 88.4091 24.2985 88.8239 24.5315C89.2405 24.7626 89.5606 25.0949 89.7841 25.5287C90.0076 25.9624 90.1193 26.4813 90.1193 27.0855C90.1193 27.6915 90.0066 28.2124 89.7812 28.648C89.5578 29.0836 89.2348 29.4179 88.8125 29.6508C88.392 29.8838 87.8864 30.0002 87.2955 30.0002ZM86.3778 29.0883H87.2443C87.6496 29.0883 87.9877 29.0144 88.2585 28.8667C88.5294 28.7171 88.733 28.4946 88.8693 28.1991C89.0057 27.9018 89.0739 27.5305 89.0739 27.0855C89.0739 26.6404 89.0057 26.2711 88.8693 25.9775C88.733 25.6821 88.5313 25.4614 88.2642 25.3156C87.9991 25.1679 87.6695 25.094 87.2756 25.094H86.3778V29.0883ZM91.1207 30.0002V24.1821H94.9048V25.0656H92.1747V26.6451H94.7088V27.5287H92.1747V29.1167H94.9276V30.0002H91.1207ZM101.862 26.04C101.815 25.8866 101.75 25.7493 101.666 25.6281C101.585 25.505 101.486 25.3999 101.371 25.3127C101.257 25.2256 101.126 25.1603 100.979 25.1167C100.831 25.0713 100.67 25.0485 100.496 25.0485C100.183 25.0485 99.9048 25.1271 99.6605 25.2843C99.4162 25.4415 99.224 25.6726 99.0838 25.9775C98.9455 26.2805 98.8764 26.6499 98.8764 27.0855C98.8764 27.5249 98.9455 27.897 99.0838 28.2019C99.2221 28.5069 99.4143 28.7389 99.6605 28.898C99.9067 29.0552 100.193 29.1338 100.518 29.1338C100.814 29.1338 101.07 29.0769 101.286 28.9633C101.503 28.8497 101.671 28.6887 101.788 28.4804C101.906 28.2701 101.964 28.0239 101.964 27.7417L102.203 27.7787H100.624V26.9548H102.984V27.6537C102.984 28.1518 102.878 28.5826 102.666 28.9463C102.454 29.3099 102.162 29.5902 101.791 29.7872C101.42 29.9823 100.994 30.0798 100.513 30.0798C99.9768 30.0798 99.5062 29.9595 99.1009 29.719C98.6974 29.4766 98.3821 29.1328 98.1548 28.6877C97.9295 28.2408 97.8168 27.7105 97.8168 27.0968C97.8168 26.6271 97.883 26.2076 98.0156 25.8383C98.1501 25.469 98.3376 25.1555 98.5781 24.898C98.8187 24.6385 99.1009 24.4415 99.4247 24.3071C99.7486 24.1707 100.101 24.1025 100.482 24.1025C100.804 24.1025 101.104 24.1499 101.382 24.2446C101.661 24.3374 101.908 24.4699 102.124 24.6423C102.341 24.8146 102.52 25.0192 102.661 25.2559C102.801 25.4927 102.893 25.754 102.936 26.04H101.862ZM104.004 30.0002V24.1821H107.788V25.0656H105.058V26.6451H107.592V27.5287H105.058V29.1167H107.81V30.0002H104.004ZM112.025 25.7815C111.998 25.5334 111.887 25.3402 111.69 25.2019C111.495 25.0637 111.241 24.9946 110.928 24.9946C110.709 24.9946 110.52 25.0277 110.363 25.094C110.206 25.1603 110.085 25.2502 110.002 25.3639C109.919 25.4775 109.876 25.6073 109.874 25.7531C109.874 25.8743 109.902 25.9794 109.957 26.0684C110.013 26.1574 110.09 26.2332 110.187 26.2957C110.283 26.3563 110.39 26.4074 110.508 26.4491C110.625 26.4908 110.744 26.5258 110.863 26.5542L111.408 26.6906C111.628 26.7417 111.839 26.8109 112.042 26.898C112.246 26.9851 112.429 27.0949 112.59 27.2275C112.753 27.3601 112.882 27.5201 112.977 27.7076C113.071 27.8951 113.119 28.1148 113.119 28.3667C113.119 28.7076 113.031 29.0078 112.857 29.2673C112.683 29.5249 112.431 29.7266 112.102 29.8724C111.774 30.0163 111.377 30.0883 110.911 30.0883C110.459 30.0883 110.066 30.0182 109.732 29.8781C109.401 29.7379 109.141 29.5334 108.954 29.2644C108.768 28.9955 108.668 28.6679 108.653 28.2815H109.69C109.705 28.4841 109.767 28.6527 109.877 28.7872C109.987 28.9216 110.13 29.022 110.306 29.0883C110.484 29.1546 110.683 29.1877 110.903 29.1877C111.132 29.1877 111.333 29.1537 111.505 29.0855C111.679 29.0154 111.816 28.9188 111.914 28.7957C112.013 28.6707 112.063 28.5249 112.065 28.3582C112.063 28.2067 112.018 28.0817 111.931 27.9832C111.844 27.8828 111.722 27.7995 111.565 27.7332C111.409 27.665 111.228 27.6044 111.019 27.5514L110.357 27.3809C109.878 27.2578 109.499 27.0713 109.221 26.8213C108.944 26.5694 108.806 26.2351 108.806 25.8184C108.806 25.4756 108.899 25.1754 109.085 24.9179C109.272 24.6603 109.527 24.4605 109.849 24.3184C110.171 24.1745 110.535 24.1025 110.942 24.1025C111.355 24.1025 111.717 24.1745 112.028 24.3184C112.34 24.4605 112.585 24.6584 112.763 24.9122C112.942 25.1641 113.033 25.4538 113.039 25.7815H112.025ZM113.803 25.0656V24.1821H118.445V25.0656H116.646V30.0002H115.601V25.0656H113.803ZM119.384 30.0002H118.259L120.307 24.1821H121.608L123.659 30.0002H122.534L120.98 25.3752H120.935L119.384 30.0002ZM119.42 27.719H122.489V28.5656H119.42V27.719ZM120.125 23.6082L119.5 23.594C119.5 23.2569 119.587 22.9927 119.761 22.8014C119.938 22.6101 120.152 22.5144 120.406 22.5144C120.529 22.5144 120.636 22.5353 120.727 22.5769C120.82 22.6167 120.904 22.6631 120.98 22.7162C121.056 22.7692 121.131 22.8165 121.205 22.8582C121.278 22.898 121.36 22.9179 121.449 22.9179C121.557 22.9179 121.642 22.8771 121.705 22.7957C121.769 22.7143 121.802 22.6101 121.804 22.4832L122.415 22.5088C122.413 22.8478 122.325 23.111 122.151 23.2985C121.976 23.4841 121.763 23.5779 121.511 23.5798C121.373 23.5798 121.258 23.5599 121.165 23.5201C121.072 23.4785 120.991 23.4311 120.92 23.3781C120.852 23.3251 120.783 23.2787 120.713 23.2389C120.643 23.1972 120.561 23.1764 120.466 23.1764C120.366 23.1764 120.283 23.2162 120.219 23.2957C120.156 23.3752 120.125 23.4794 120.125 23.6082ZM129.351 27.0912C129.351 27.718 129.233 28.255 128.999 28.7019C128.766 29.147 128.447 29.4879 128.044 29.7247C127.643 29.9614 127.187 30.0798 126.678 30.0798C126.168 30.0798 125.712 29.9614 125.308 29.7247C124.907 29.486 124.589 29.1442 124.354 28.6991C124.121 28.2521 124.004 27.7162 124.004 27.0912C124.004 26.4643 124.121 25.9283 124.354 25.4832C124.589 25.0362 124.907 24.6944 125.308 24.4576C125.712 24.2209 126.168 24.1025 126.678 24.1025C127.187 24.1025 127.643 24.2209 128.044 24.4576C128.447 24.6944 128.766 25.0362 128.999 25.4832C129.233 25.9283 129.351 26.4643 129.351 27.0912ZM128.291 27.0912C128.291 26.6499 128.222 26.2777 128.084 25.9747C127.947 25.6698 127.758 25.4396 127.516 25.2843C127.273 25.1271 126.994 25.0485 126.678 25.0485C126.361 25.0485 126.082 25.1271 125.839 25.2843C125.597 25.4396 125.407 25.6698 125.268 25.9747C125.132 26.2777 125.064 26.6499 125.064 27.0912C125.064 27.5324 125.132 27.9055 125.268 28.2105C125.407 28.5135 125.597 28.7436 125.839 28.9008C126.082 29.0561 126.361 29.1338 126.678 29.1338C126.994 29.1338 127.273 29.0561 127.516 28.9008C127.758 28.7436 127.947 28.5135 128.084 28.2105C128.222 27.9055 128.291 27.5324 128.291 27.0912ZM49.5455 40.0002H47.5739V34.1821H49.5852C50.1629 34.1821 50.6591 34.2985 51.0739 34.5315C51.4905 34.7626 51.8106 35.0949 52.0341 35.5287C52.2576 35.9624 52.3693 36.4813 52.3693 37.0855C52.3693 37.6915 52.2566 38.2124 52.0312 38.648C51.8078 39.0836 51.4848 39.4179 51.0625 39.6508C50.642 39.8838 50.1364 40.0002 49.5455 40.0002ZM48.6278 39.0883H49.4943C49.8996 39.0883 50.2377 39.0144 50.5085 38.8667C50.7794 38.7171 50.983 38.4946 51.1193 38.1991C51.2557 37.9018 51.3239 37.5305 51.3239 37.0855C51.3239 36.6404 51.2557 36.2711 51.1193 35.9775C50.983 35.6821 50.7813 35.4614 50.5142 35.3156C50.2491 35.1679 49.9195 35.094 49.5256 35.094H48.6278V39.0883ZM53.3707 40.0002V34.1821H57.1548V35.0656H54.4247V36.6451H56.9588V37.5287H54.4247V39.1167H57.1776V40.0002H53.3707ZM60.9616 40.0002H59.8366L61.8849 34.1821H63.1861L65.2372 40.0002H64.1122L62.5582 35.3752H62.5128L60.9616 40.0002ZM60.9986 37.719H64.0668V38.5656H60.9986V37.719ZM65.0447 35.0656V34.1821H69.6868V35.0656H67.8885V40.0002H66.843V35.0656H65.0447ZM71.6357 34.1821V40.0002H70.5817V34.1821H71.6357ZM73.5554 34.1821L75.0696 38.7616H75.1293L76.6406 34.1821H77.7997L75.7486 40.0002H74.4474L72.3991 34.1821H73.5554ZM79.62 34.1821V40.0002H78.5661V34.1821H79.62ZM82.733 40.0002H80.7614V34.1821H82.7727C83.3504 34.1821 83.8466 34.2985 84.2614 34.5315C84.678 34.7626 84.9981 35.0949 85.2216 35.5287C85.4451 35.9624 85.5568 36.4813 85.5568 37.0855C85.5568 37.6915 85.4441 38.2124 85.2188 38.648C84.9953 39.0836 84.6723 39.4179 84.25 39.6508C83.8295 39.8838 83.3239 40.0002 82.733 40.0002ZM81.8153 39.0883H82.6818C83.0871 39.0883 83.4252 39.0144 83.696 38.8667C83.9669 38.7171 84.1705 38.4946 84.3068 38.1991C84.4432 37.9018 84.5114 37.5305 84.5114 37.0855C84.5114 36.6404 84.4432 36.2711 84.3068 35.9775C84.1705 35.6821 83.9688 35.4614 83.7017 35.3156C83.4366 35.1679 83.107 35.094 82.7131 35.094H81.8153V39.0883ZM86.9929 40.0002H85.8679L87.9162 34.1821H89.2173L91.2685 40.0002H90.1435L88.5895 35.3752H88.544L86.9929 40.0002ZM87.0298 37.719H90.098V38.5656H87.0298V37.719ZM94.0064 40.0002H92.0348V34.1821H94.0462C94.6238 34.1821 95.12 34.2985 95.5348 34.5315C95.9515 34.7626 96.2715 35.0949 96.495 35.5287C96.7185 35.9624 96.8303 36.4813 96.8303 37.0855C96.8303 37.6915 96.7176 38.2124 96.4922 38.648C96.2687 39.0836 95.9458 39.4179 95.5234 39.6508C95.103 39.8838 94.5973 40.0002 94.0064 40.0002ZM93.0888 39.0883H93.9553C94.3606 39.0883 94.6986 39.0144 94.9695 38.8667C95.2403 38.7171 95.4439 38.4946 95.5803 38.1991C95.7166 37.9018 95.7848 37.5305 95.7848 37.0855C95.7848 36.6404 95.7166 36.2711 95.5803 35.9775C95.4439 35.6821 95.2422 35.4614 94.9751 35.3156C94.71 35.1679 94.3804 35.094 93.9865 35.094H93.0888V39.0883ZM97.8317 40.0002V34.1821H101.616V35.0656H98.8857V36.6451H101.42V37.5287H98.8857V39.1167H101.638V40.0002H97.8317ZM105.853 35.7815C105.826 35.5334 105.715 35.3402 105.518 35.2019C105.323 35.0637 105.069 34.9946 104.756 34.9946C104.537 34.9946 104.348 35.0277 104.191 35.094C104.034 35.1603 103.914 35.2502 103.83 35.3639C103.747 35.4775 103.704 35.6073 103.702 35.7531C103.702 35.8743 103.73 35.9794 103.785 36.0684C103.842 36.1574 103.918 36.2332 104.015 36.2957C104.112 36.3563 104.219 36.4074 104.336 36.4491C104.453 36.4908 104.572 36.5258 104.691 36.5542L105.237 36.6906C105.456 36.7417 105.667 36.8109 105.87 36.898C106.075 36.9851 106.257 37.0949 106.418 37.2275C106.581 37.3601 106.71 37.5201 106.805 37.7076C106.899 37.8951 106.947 38.1148 106.947 38.3667C106.947 38.7076 106.86 39.0078 106.685 39.2673C106.511 39.5249 106.259 39.7266 105.93 39.8724C105.602 40.0163 105.205 40.0883 104.739 40.0883C104.287 40.0883 103.894 40.0182 103.56 39.8781C103.229 39.7379 102.969 39.5334 102.782 39.2644C102.596 38.9955 102.496 38.6679 102.481 38.2815H103.518C103.533 38.4841 103.595 38.6527 103.705 38.7872C103.815 38.9216 103.958 39.022 104.134 39.0883C104.312 39.1546 104.511 39.1877 104.731 39.1877C104.96 39.1877 105.161 39.1537 105.333 39.0855C105.507 39.0154 105.644 38.9188 105.742 38.7957C105.841 38.6707 105.891 38.5249 105.893 38.3582C105.891 38.2067 105.846 38.0817 105.759 37.9832C105.672 37.8828 105.55 37.7995 105.393 37.7332C105.237 37.665 105.056 37.6044 104.847 37.5514L104.185 37.3809C103.706 37.2578 103.327 37.0713 103.049 36.8213C102.772 36.5694 102.634 36.2351 102.634 35.8184C102.634 35.4756 102.727 35.1754 102.913 34.9179C103.1 34.6603 103.355 34.4605 103.677 34.3184C103.999 34.1745 104.363 34.1025 104.771 34.1025C105.183 34.1025 105.545 34.1745 105.856 34.3184C106.168 34.4605 106.414 34.6584 106.592 34.9122C106.77 35.1641 106.862 35.4538 106.867 35.7815H105.853Z" fill="#0D263B"/>
</svg>
